<svg width="238" height="38" viewBox="0 0 238 38" fill="none" xmlns="http://www.w3.org/2000/svg">
<g filter="url(#filter0_d)">
<path d="M19.676 29.432C18.164 29.432 16.724 29.216 15.356 28.784C14.012 28.328 12.908 27.656 12.044 26.768L14.24 23.06L14.42 22.772L14.78 22.988C14.828 23.156 14.888 23.336 14.96 23.528C15.056 23.696 15.248 23.912 15.536 24.176C16.112 24.608 16.748 24.956 17.444 25.22C18.164 25.484 18.92 25.628 19.712 25.652C20.768 25.676 21.62 25.484 22.268 25.076C22.916 24.644 23.24 23.972 23.24 23.06C23.24 22.628 23.144 22.22 22.952 21.836C22.76 21.452 22.364 21.044 21.764 20.612C21.164 20.18 20.276 19.688 19.1 19.136C17.54 18.416 16.304 17.72 15.392 17.048C14.504 16.352 13.868 15.608 13.484 14.816C13.1 14 12.908 13.064 12.908 12.008C12.908 10.904 13.22 9.92 13.844 9.056C14.492 8.168 15.368 7.472 16.472 6.968C17.576 6.44 18.812 6.176 20.18 6.176C23.036 6.176 25.376 7.148 27.2 9.092L24.464 12.116L24.248 12.368L23.96 12.116C23.936 11.924 23.888 11.744 23.816 11.576C23.768 11.384 23.624 11.144 23.384 10.856C22.952 10.472 22.496 10.22 22.016 10.1C21.536 9.956 20.984 9.884 20.36 9.884C19.448 9.884 18.728 10.088 18.2 10.496C17.672 10.88 17.408 11.336 17.408 11.864C17.408 12.272 17.492 12.644 17.66 12.98C17.852 13.316 18.26 13.688 18.884 14.096C19.508 14.504 20.468 15.008 21.764 15.608C23.3 16.352 24.5 17.06 25.364 17.732C26.252 18.404 26.876 19.148 27.236 19.964C27.596 20.756 27.776 21.704 27.776 22.808C27.776 23.936 27.488 25.004 26.912 26.012C26.36 26.996 25.484 27.812 24.284 28.46C23.084 29.108 21.548 29.432 19.676 29.432ZM30.008 29V12.152H33.752V13.232C34.16 12.68 34.604 12.296 35.084 12.08C35.564 11.864 36.044 11.756 36.524 11.756C37.076 11.756 37.604 11.888 38.108 12.152C38.636 12.416 39.056 12.92 39.368 13.664C40.112 12.392 41.264 11.756 42.824 11.756C44.072 11.756 44.96 12.2 45.488 13.088C46.04 13.952 46.316 15.164 46.316 16.724V29H42.428V17.588C42.428 16.628 42.356 15.968 42.212 15.608C42.092 15.224 41.888 15.032 41.6 15.032C41.192 15.032 40.82 15.308 40.484 15.86C40.148 16.412 39.98 17.228 39.98 18.308V29H36.344V17.66C36.344 16.58 36.272 15.86 36.128 15.5C35.984 15.116 35.732 14.924 35.372 14.924C34.964 14.924 34.616 15.2 34.328 15.752C34.04 16.28 33.896 17.06 33.896 18.092V29H30.008ZM55.964 29.396C54.452 29.396 53.084 29.036 51.86 28.316C50.636 27.572 49.664 26.54 48.944 25.22C48.224 23.9 47.864 22.352 47.864 20.576C47.864 18.92 48.224 17.432 48.944 16.112C49.664 14.768 50.636 13.712 51.86 12.944C53.084 12.152 54.452 11.756 55.964 11.756C57.476 11.756 58.844 12.152 60.068 12.944C61.316 13.712 62.3 14.768 63.02 16.112C63.764 17.432 64.136 18.92 64.136 20.576C64.136 22.328 63.764 23.864 63.02 25.184C62.3 26.504 61.316 27.536 60.068 28.28C58.844 29.024 57.476 29.396 55.964 29.396ZM55.964 25.76C57.02 25.76 57.884 25.292 58.556 24.356C59.252 23.396 59.6 22.136 59.6 20.576C59.6 18.944 59.252 17.672 58.556 16.76C57.884 15.848 57.02 15.392 55.964 15.392C54.956 15.392 54.104 15.848 53.408 16.76C52.736 17.672 52.4 18.944 52.4 20.576C52.4 22.136 52.736 23.396 53.408 24.356C54.08 25.292 54.932 25.76 55.964 25.76ZM73.964 29.396C72.452 29.396 71.084 29.036 69.86 28.316C68.636 27.572 67.664 26.54 66.944 25.22C66.224 23.9 65.864 22.352 65.864 20.576C65.864 18.92 66.224 17.432 66.944 16.112C67.664 14.768 68.636 13.712 69.86 12.944C71.084 12.152 72.452 11.756 73.964 11.756C75.476 11.756 76.844 12.152 78.068 12.944C79.316 13.712 80.3 14.768 81.02 16.112C81.764 17.432 82.136 18.92 82.136 20.576C82.136 22.328 81.764 23.864 81.02 25.184C80.3 26.504 79.316 27.536 78.068 28.28C76.844 29.024 75.476 29.396 73.964 29.396ZM73.964 25.76C75.02 25.76 75.884 25.292 76.556 24.356C77.252 23.396 77.6 22.136 77.6 20.576C77.6 18.944 77.252 17.672 76.556 16.76C75.884 15.848 75.02 15.392 73.964 15.392C72.956 15.392 72.104 15.848 71.408 16.76C70.736 17.672 70.4 18.944 70.4 20.576C70.4 22.136 70.736 23.396 71.408 24.356C72.08 25.292 72.932 25.76 73.964 25.76ZM93.764 29.396C92.516 29.396 91.448 29.132 90.56 28.604C89.696 28.076 89.048 27.164 88.616 25.868C88.184 24.548 88.016 22.736 88.112 20.432L88.292 15.752H84.908L84.98 12.152H88.436L88.616 8.264L93.296 7.652L93.62 7.616L93.656 8.012C93.536 8.156 93.428 8.324 93.332 8.516C93.26 8.684 93.212 8.972 93.188 9.38L92.972 12.152H98.228L98.156 15.752H92.9L92.684 20.252C92.612 21.716 92.66 22.856 92.828 23.672C93.02 24.464 93.296 25.016 93.656 25.328C94.016 25.616 94.424 25.76 94.88 25.76C95.624 25.76 96.308 25.604 96.932 25.292C97.556 24.98 98.108 24.62 98.588 24.212L99.452 27.488C98.612 28.088 97.724 28.556 96.788 28.892C95.876 29.228 94.868 29.396 93.764 29.396ZM102.764 4.772H107.696V5.132C107.552 5.276 107.456 5.444 107.408 5.636C107.384 5.804 107.372 6.08 107.372 6.464V14.096C107.972 13.28 108.704 12.692 109.568 12.332C110.432 11.948 111.284 11.756 112.124 11.756C113.78 11.756 115.1 12.308 116.084 13.412C117.092 14.516 117.596 16.328 117.596 18.848V29H112.988V18.884C112.988 17.516 112.796 16.556 112.412 16.004C112.052 15.452 111.536 15.176 110.864 15.176C109.832 15.176 108.992 15.548 108.344 16.292C107.696 17.012 107.372 18.02 107.372 19.316V29H102.764V4.772Z" fill="#645CFF"/>
<path d="M127.676 29.432C126.164 29.432 124.724 29.216 123.356 28.784C122.012 28.328 120.908 27.656 120.044 26.768L122.24 23.06L122.42 22.772L122.78 22.988C122.828 23.156 122.888 23.336 122.96 23.528C123.056 23.696 123.248 23.912 123.536 24.176C124.112 24.608 124.748 24.956 125.444 25.22C126.164 25.484 126.92 25.628 127.712 25.652C128.768 25.676 129.62 25.484 130.268 25.076C130.916 24.644 131.24 23.972 131.24 23.06C131.24 22.628 131.144 22.22 130.952 21.836C130.76 21.452 130.364 21.044 129.764 20.612C129.164 20.18 128.276 19.688 127.1 19.136C125.54 18.416 124.304 17.72 123.392 17.048C122.504 16.352 121.868 15.608 121.484 14.816C121.1 14 120.908 13.064 120.908 12.008C120.908 10.904 121.22 9.92 121.844 9.056C122.492 8.168 123.368 7.472 124.472 6.968C125.576 6.44 126.812 6.176 128.18 6.176C131.036 6.176 133.376 7.148 135.2 9.092L132.464 12.116L132.248 12.368L131.96 12.116C131.936 11.924 131.888 11.744 131.816 11.576C131.768 11.384 131.624 11.144 131.384 10.856C130.952 10.472 130.496 10.22 130.016 10.1C129.536 9.956 128.984 9.884 128.36 9.884C127.448 9.884 126.728 10.088 126.2 10.496C125.672 10.88 125.408 11.336 125.408 11.864C125.408 12.272 125.492 12.644 125.66 12.98C125.852 13.316 126.26 13.688 126.884 14.096C127.508 14.504 128.468 15.008 129.764 15.608C131.3 16.352 132.5 17.06 133.364 17.732C134.252 18.404 134.876 19.148 135.236 19.964C135.596 20.756 135.776 21.704 135.776 22.808C135.776 23.936 135.488 25.004 134.912 26.012C134.36 26.996 133.484 27.812 132.284 28.46C131.084 29.108 129.548 29.432 127.676 29.432ZM146.936 29.432C145.28 29.432 143.792 29.06 142.472 28.316C141.152 27.572 140.108 26.552 139.34 25.256C138.596 23.936 138.224 22.436 138.224 20.756C138.224 19.1 138.596 17.588 139.34 16.22C140.108 14.852 141.152 13.772 142.472 12.98C143.792 12.164 145.292 11.756 146.972 11.756C148.58 11.756 149.972 12.044 151.148 12.62C152.324 13.196 153.26 14.012 153.956 15.068L151.472 17.804L151.22 18.056L150.932 17.84C150.932 17.648 150.908 17.456 150.86 17.264C150.812 17.048 150.668 16.784 150.428 16.472C149.996 16.064 149.504 15.776 148.952 15.608C148.424 15.44 147.812 15.356 147.116 15.356C145.988 15.356 144.992 15.824 144.128 16.76C143.264 17.696 142.832 19.04 142.832 20.792C142.832 21.848 143.036 22.748 143.444 23.492C143.852 24.236 144.38 24.812 145.028 25.22C145.7 25.604 146.396 25.796 147.116 25.796C147.836 25.796 148.544 25.652 149.24 25.364C149.96 25.052 150.656 24.5 151.328 23.708L153.812 26.588C152.9 27.596 151.82 28.328 150.572 28.784C149.348 29.216 148.136 29.432 146.936 29.432ZM157.844 12.152H162.56V14.78C163.016 13.844 163.664 13.112 164.504 12.584C165.368 12.032 166.28 11.756 167.24 11.756C168.2 11.756 169.064 11.912 169.832 12.224C170.6 12.512 171.308 13.004 171.956 13.7L170.048 17.588L169.94 17.876L169.58 17.732C169.508 17.54 169.436 17.336 169.364 17.12C169.316 16.904 169.16 16.652 168.896 16.364C168.56 16.1 168.2 15.896 167.816 15.752C167.432 15.584 167.012 15.5 166.556 15.5C165.428 15.5 164.468 15.872 163.676 16.616C162.884 17.36 162.488 18.56 162.488 20.216V29H157.844V12.152ZM181.964 29.396C180.452 29.396 179.084 29.036 177.86 28.316C176.636 27.572 175.664 26.54 174.944 25.22C174.224 23.9 173.864 22.352 173.864 20.576C173.864 18.92 174.224 17.432 174.944 16.112C175.664 14.768 176.636 13.712 177.86 12.944C179.084 12.152 180.452 11.756 181.964 11.756C183.476 11.756 184.844 12.152 186.068 12.944C187.316 13.712 188.3 14.768 189.02 16.112C189.764 17.432 190.136 18.92 190.136 20.576C190.136 22.328 189.764 23.864 189.02 25.184C188.3 26.504 187.316 27.536 186.068 28.28C184.844 29.024 183.476 29.396 181.964 29.396ZM181.964 25.76C183.02 25.76 183.884 25.292 184.556 24.356C185.252 23.396 185.6 22.136 185.6 20.576C185.6 18.944 185.252 17.672 184.556 16.76C183.884 15.848 183.02 15.392 181.964 15.392C180.956 15.392 180.104 15.848 179.408 16.76C178.736 17.672 178.4 18.944 178.4 20.576C178.4 22.136 178.736 23.396 179.408 24.356C180.08 25.292 180.932 25.76 181.964 25.76ZM193.052 29V25.4H197.732V8.372H193.268V4.772H202.34V25.4H206.948V29H193.052ZM211.052 29V25.4H215.732V8.372H211.268V4.772H220.34V25.4H224.948V29H211.052Z" fill="#333538"/>
</g>
<defs>
<filter id="filter0_d" x="8.04401" y="4.772" width="220.904" height="32.66" filterUnits="userSpaceOnUse" color-interpolation-filters="sRGB">
<feFlood flood-opacity="0" result="BackgroundImageFix"/>
<feColorMatrix in="SourceAlpha" type="matrix" values="0 0 0 0 0 0 0 0 0 0 0 0 0 0 0 0 0 0 127 0"/>
<feOffset dy="4"/>
<feGaussianBlur stdDeviation="2"/>
<feColorMatrix type="matrix" values="0 0 0 0 0 0 0 0 0 0 0 0 0 0 0 0 0 0 0.25 0"/>
<feBlend mode="normal" in2="BackgroundImageFix" result="effect1_dropShadow"/>
<feBlend mode="normal" in="SourceGraphic" in2="effect1_dropShadow" result="shape"/>
</filter>
</defs>
</svg>
